HIERARCHY
ROOT pelvis
{
	OFFSET 0.000000 0.000000 0.000000
	CHANNELS 6 Xposition Yposition Zposition Zrotation Xrotation Yrotation
	JOINT lfemur
	{
		OFFSET 11.446000 0.000000 0.000000
		CHANNELS 3 Zrotation Xrotation Yrotation
		JOINT ltibia
		{
			OFFSET 0.000000 -42.030400 0.000000
			CHANNELS 3 Zrotation Xrotation Yrotation
			JOINT lfoot
			{
				OFFSET 0.000000 -39.930200 0.000000
				CHANNELS 3 Zrotation Xrotation Yrotation
				JOINT ltoes
				{
					OFFSET 0.000000 0.000000 11.775800
					CHANNELS 3 Zrotation Xrotation Yrotation
					End Site
					{
					    OFFSET 0.000000 0.000000 5.000000
					}
				}
			}
		}
	}
	JOINT rfemur
	{
		OFFSET -11.446000 0.000000 0.000000
		CHANNELS 3 Zrotation Xrotation Yrotation
		JOINT rtibia
		{
			OFFSET 0.000000 -42.030400 0.000000
			CHANNELS 3 Zrotation Xrotation Yrotation
			JOINT rfoot
			{
				OFFSET 0.000000 -39.930200 0.000000
				CHANNELS 3 Zrotation Xrotation Yrotation
				JOINT rtoes
				{
					OFFSET 0.000000 0.000000 11.775800
					CHANNELS 3 Zrotation Xrotation Yrotation
					End Site
					{
					    OFFSET 0.000000 0.000000 5.000000
					}
				}
			}
		}
	}
	JOINT thorax
	{
		OFFSET 0.000000 11.255600 -5.000000
		CHANNELS 3 Zrotation Xrotation Yrotation
		JOINT head
		{
			OFFSET 0.000000 43.799300 0.000000
			CHANNELS 3 Zrotation Xrotation Yrotation
			End Site
			{
			    OFFSET 0.000000 5.000000 0.000000
			}
		}
		JOINT lclavicle
		{
			OFFSET 0.000000 39.863000 0.000000
			CHANNELS 3 Zrotation Xrotation Yrotation
			JOINT lhumerus
			{
				OFFSET 17.380600 4.958300 0.000000
				CHANNELS 3 Zrotation Xrotation Yrotation
				JOINT lradius
				{
					OFFSET 0.000000 -27.561300 0.000000
					CHANNELS 3 Zrotation Xrotation Yrotation
					JOINT lhand
					{
						OFFSET 0.000000 -26.933000 0.000000
						CHANNELS 3 Zrotation Xrotation Yrotation
						End Site
						{
						    OFFSET 0.000000 -5.000000 0.000000
						}
					}
				}
			}
		}
		JOINT rclavicle
		{
			OFFSET 0.000000 39.863000 0.000000
			CHANNELS 3 Zrotation Xrotation Yrotation
			JOINT rhumerus
			{
				OFFSET -17.380600 4.958300 0.000000
				CHANNELS 3 Zrotation Xrotation Yrotation
				JOINT rradius
				{
					OFFSET 0.000000 -27.561300 0.000000
					CHANNELS 3 Zrotation Xrotation Yrotation
					JOINT rhand
					{
						OFFSET 0.000000 -26.933000 0.000000
						CHANNELS 3 Zrotation Xrotation Yrotation
						End Site
						{
						    OFFSET 0.000000 -5.000000 0.000000
						}
					}
				}
			}
		}
	}
}
MOTION
Frames: 11
Frame Time:	0.0333333
54.282500 85.708800 7.003800 0.370818 -1.263162 -96.767058 -6.915604 -13.246503 3.000435 0.000000 31.607038 -0.000000 0.000000 -2.389372 6.004523 -0.000000 -1.270768 0.000000 -6.051347 -14.206553 -3.852129 -0.000000 29.494197 -0.000000 0.000000 0.010984 4.001104 -0.000000 -29.572871 0.000000 -3.457707 8.493113 -2.527218 18.386421 18.496994 5.052229 -19.252963 0.000000 1.954921 29.863924 -4.189010 8.914761 -0.000001 -28.198601 -26.038827 13.463988 -0.307194 0.000000 26.213583 -0.000000 -0.406034 -43.287853 3.997552 -18.710106 0.000000 -41.978677 13.052973 1.743942 -4.017833 0.000000 
55.075400 85.764500 7.309400 1.149265 -1.078922 -98.289058 -6.488340 -14.474616 4.278827 -0.000000 31.452536 -0.000000 0.000000 -2.085358 6.258825 -0.000000 -1.261494 -0.000000 -5.931293 -15.784132 -4.268154 -0.000000 29.440092 0.000000 -0.000000 0.523352 4.818231 -0.000000 -29.578062 -0.000000 -3.221147 8.955581 -3.009213 17.613496 17.852492 6.755709 -18.744657 0.000000 1.162464 25.429366 -5.618211 1.021498 0.000001 -34.935083 -25.907210 13.995112 -1.274728 0.000000 27.824610 -0.000000 0.065619 -38.746536 2.774397 -13.292874 0.000002 -46.285417 12.792242 2.882147 -4.405364 -0.000000 
55.871700 85.878900 7.563900 1.839818 -0.928869 -100.114450 -5.986790 -15.556644 5.579928 0.000000 31.224906 -0.000000 -0.000000 -1.659917 6.757883 0.000000 -1.263918 0.000000 -5.565652 -17.200490 -4.926568 0.000000 29.746303 -0.000000 -0.000000 0.851785 3.290608 -0.000000 -29.578000 -0.000000 -2.873211 9.495604 -3.347478 16.643106 17.394298 8.481288 -17.078585 0.000000 0.136228 22.476036 -7.517562 -6.474550 0.000002 -43.464694 -23.070623 16.620400 -1.608635 -0.000000 28.386970 0.000000 0.184752 -34.867690 1.259612 -6.982539 -0.000001 -51.261562 11.718826 3.236346 -4.531905 0.000000 
56.551800 86.039900 7.704400 2.299815 -0.829591 -102.235927 -5.448682 -16.139182 6.856160 -0.000000 30.698882 -0.000000 -0.000000 -1.235188 7.389827 0.000000 -1.265297 0.000000 -5.242066 -17.848770 -6.823969 0.000000 30.922247 0.000000 -0.000000 0.709801 0.018178 0.000000 -29.569374 -0.000000 -2.766338 9.828333 -3.554980 15.738512 17.457968 10.142198 -14.938552 0.000000 -1.195436 21.443795 -8.388641 -10.015411 0.000001 -55.663070 -20.608706 16.836783 -1.720157 -0.000000 28.273528 0.000000 0.364036 -32.656053 0.692936 1.377302 -0.000001 -57.758919 11.415593 2.657381 -4.339698 -0.000000 
57.163300 86.144100 7.905800 2.657679 -1.077389 -104.300976 -5.339676 -16.642954 7.810195 -0.000000 30.208577 -0.000000 0.000000 -0.709855 8.210524 -0.000000 -1.279351 0.000000 -5.444306 -17.800554 -8.654267 -0.000000 32.621035 -0.000000 0.000000 0.206328 -2.329834 0.000000 -29.566795 -0.000000 -2.838319 10.182058 -3.454181 14.977721 17.380660 11.435643 -13.282126 -0.000000 -1.339769 20.692329 -10.288159 -10.582766 -0.000006 -69.184280 -18.618177 20.613086 -0.759646 -0.000000 27.750678 -0.000000 -0.480527 -32.834564 0.237076 11.134521 0.000000 -67.342323 11.164227 3.856405 -4.752384 0.000000 
57.337900 86.103500 8.377100 3.356118 -1.936158 -104.284523 -6.940209 -17.339093 5.050910 -0.000000 29.517874 0.000000 0.000000 -0.311842 9.998731 -0.000000 -1.277982 -0.000000 -7.872674 -16.763776 -14.709645 -0.000000 33.925912 0.000000 -0.000000 -1.215949 -3.179905 0.000000 -29.560713 -0.000000 -2.946660 9.799922 -4.731128 14.477912 17.345480 11.684773 -12.408329 -0.000000 -1.438552 21.249056 -12.649129 -9.995951 0.000012 -82.838661 -19.045915 20.590148 -0.400225 -0.000000 27.273399 -0.000000 -1.664847 -34.395222 0.005450 18.920664 0.000003 -78.025060 10.079388 3.469263 -4.626355 0.000000 
58.204000 86.194800 8.082000 3.347107 -2.051160 -108.829957 -5.203770 -17.850332 9.593243 0.000000 29.833695 -0.000000 -0.000000 -0.209403 9.719194 -0.000000 -1.307456 -0.000000 -6.497056 -15.483804 -10.984407 -0.000000 32.877361 -0.000000 -0.000000 -1.254383 -8.422050 -0.000000 -29.549730 -0.000000 -3.242109 9.641713 -2.084680 13.572638 18.019125 12.518542 -11.597306 -0.000000 -0.710209 22.161099 -14.940334 -8.608248 180.000035 -84.582482 159.844369 21.121775 -0.550816 -0.000000 26.402812 -0.000000 -1.654238 -35.634603 0.319170 24.112748 0.000003 -87.817252 8.402176 3.032668 -4.482290 -0.000000 
58.569400 86.189900 8.021600 3.505005 -2.327451 -111.042732 -4.867754 -18.331062 10.431360 -0.000000 30.038021 -0.000000 0.000000 -0.176311 10.525103 -0.000000 -1.310676 0.000000 -7.018906 -13.236093 -11.941439 0.000000 31.159183 -0.000000 0.000000 -1.854412 -10.427920 -0.000000 -29.543822 -0.000000 -3.215826 9.319781 -1.621225 12.923412 18.345449 12.610790 -10.765130 0.000000 -0.572494 23.426223 -16.457121 -6.365003 180.000036 -73.211523 159.604254 21.514930 -0.226210 -0.000000 25.852686 0.000000 -1.845896 -37.078438 0.135274 27.688637 180.000037 -83.319900 -173.214576 3.232630 -4.554311 0.000000 
59.019400 86.175000 7.848800 3.696823 -2.849343 -113.518424 -4.654132 -18.866093 11.045562 -0.000000 30.043109 -0.000000 -0.000000 -0.092324 11.748338 0.000000 -1.309888 -0.000000 -7.749708 -11.548259 -12.476965 -0.000000 29.472733 0.000000 -0.000000 -1.820708 -11.081008 -0.000000 -29.543419 0.000000 -3.371797 9.079720 -1.022620 11.913108 18.666653 13.390401 -10.309504 0.000000 -0.147602 25.407824 -17.626877 -4.250492 -180.000035 -63.540567 160.706026 22.159774 0.417116 -0.000000 25.450225 -0.000000 -2.044176 -38.331004 -0.731440 30.164976 -180.000034 -75.793308 -174.316489 2.835058 -4.424904 0.000000 
59.656900 86.172500 7.623500 4.006476 -3.492325 -116.047933 -4.222305 -19.706293 12.136476 -0.000000 30.254271 -0.000000 -0.000000 0.142378 12.638611 0.000000 -1.315632 -0.000000 -8.484887 -10.531684 -12.378802 -0.000000 27.768251 0.000000 0.000000 -1.398507 -10.402084 0.000000 -29.544293 -0.000000 -3.667714 8.739985 -0.435411 11.060155 18.532112 13.698438 -10.038747 -0.000000 0.235484 27.446933 -17.911468 -1.989519 -180.000035 -55.820852 161.372242 22.807455 0.693901 0.000000 25.076868 -0.000000 -2.237366 -39.410408 -1.839835 31.937087 180.000036 -69.517834 -174.232586 1.347889 -3.925611 0.000000 
60.437300 86.150700 7.324800 4.278723 -3.916920 -118.312862 -3.472192 -20.586882 13.231355 -0.000000 30.591806 -0.000000 -0.000000 0.416456 13.426494 -0.000000 -1.317663 -0.000000 -8.831191 -9.709401 -11.470906 0.000000 25.740830 0.000000 -0.000000 -1.248817 -9.560153 0.000000 -29.547333 -0.000000 -3.777806 8.546221 0.015597 10.180490 18.505481 14.153190 -9.988295 0.000000 0.802205 28.933155 -17.592531 -0.601218 180.000035 -50.116990 162.016228 23.423028 0.890037 -0.000000 24.790153 0.000000 -2.290321 -40.560642 -2.297331 32.741407 180.000037 -64.065833 -174.607498 0.677396 -3.703995 0.000000 
